<svg xmlns="http://www.w3.org/2000/svg"  viewBox="0 0 100 100" width="128px" height="128px"><circle cx="52" cy="52" r="44" opacity=".35"/><circle cx="50" cy="50" r="44" fill="#f2f2f2"/><circle cx="50" cy="50" r="37.5" fill="#70bfff"/><path fill="#40396e" d="M50,89c-21.505,0-39-17.495-39-39s17.495-39,39-39s39,17.495,39,39S71.505,89,50,89z M50,14 c-19.851,0-36,16.149-36,36s16.149,36,36,36s36-16.149,36-36S69.851,14,50,14z"/><g><path fill="#d9eeff" d="M49.621,75.476c-3.655,0-7-0.584-10.032-1.752c-3.034-1.168-5.644-2.826-7.828-4.974 c-2.186-2.147-3.872-4.709-5.059-7.687c-1.187-2.976-1.78-6.292-1.78-9.947c0-5.124,1.073-9.589,3.222-13.396 c2.147-3.805,5.152-6.772,9.015-8.902c3.862-2.128,8.374-3.193,13.536-3.193c4.484,0,8.412,0.876,11.785,2.628 c3.371,1.752,5.981,4.22,7.828,7.404c1.846,3.185,2.77,6.924,2.77,11.219c0,3.241-0.462,6.048-1.385,8.421 c-0.924,2.374-2.215,4.211-3.872,5.511c-1.658,1.3-3.599,1.95-5.821,1.95c-3.807,0-6.237-1.563-7.291-4.691 c-1.018,1.583-2.224,2.761-3.617,3.533c-1.395,0.772-2.902,1.159-4.522,1.159c-3.052,0-5.426-0.961-7.121-2.883 c-1.695-1.921-2.543-4.54-2.543-7.856c0-2.75,0.518-5.2,1.554-7.348c1.036-2.148,2.459-3.834,4.268-5.059 c1.809-1.224,3.88-1.837,6.217-1.837c3.165,0,5.389,1.243,6.67,3.73l0.112-0.452c0.34-1.884,1.47-2.826,3.392-2.826 c1.055,0,1.827,0.292,2.317,0.876c0.489,0.584,0.641,1.423,0.452,2.515l-1.752,9.778c-0.265,1.395-0.396,2.487-0.396,3.278 c0,2.148,0.885,3.222,2.656,3.222c1.657,0,3.004-1.018,4.041-3.052c1.036-2.035,1.555-4.691,1.555-7.969 c0-5.2-1.536-9.203-4.606-12.01c-3.072-2.807-7.319-4.211-12.745-4.211c-4.07,0-7.603,0.839-10.598,2.515 c-2.996,1.677-5.313,4.041-6.952,7.093s-2.459,6.669-2.459,10.852c0,4.032,0.772,7.489,2.317,10.371 c1.545,2.883,3.739,5.096,6.585,6.641c2.845,1.544,6.207,2.317,10.089,2.317c2.298,0,4.417-0.264,6.358-0.792 c1.94-0.528,3.721-1.281,5.341-2.261c0.828-0.49,1.555-0.631,2.176-0.424c0.622,0.207,1.074,0.612,1.356,1.215 c0.283,0.602,0.33,1.252,0.142,1.95c-0.188,0.697-0.678,1.272-1.47,1.724c-1.695,1.092-3.729,1.968-6.104,2.628 C55.047,75.146,52.447,75.476,49.621,75.476z M47.926,57.559c1.921,0,3.484-0.876,4.69-2.628c1.206-1.752,1.809-4.06,1.809-6.924 c0-3.315-1.433-4.974-4.295-4.974c-1.96,0-3.562,0.819-4.805,2.458s-1.865,3.796-1.865,6.472c0,1.847,0.386,3.241,1.159,4.183 C45.391,57.088,46.493,57.559,47.926,57.559z"/></g></svg>