<?xml version="1.0" encoding="iso-8859-1"?>
<!-- Generator: Adobe Illustrator 25.4.1, SVG Export Plug-In . SVG Version: 6.00 Build 0)  -->
<svg version="1.1" baseProfile="basic" id="Layer_1"
	 xmlns="http://www.w3.org/2000/svg" xmlns:xlink="http://www.w3.org/1999/xlink" x="0px" y="0px" viewBox="0 0 100 100"
	 xml:space="preserve">
<path style="fill:#6E78AC;" d="M18.554,71.802v-42.01c0-5.796,4.698-10.494,10.494-10.494h42.011
	c5.796,0,10.494,4.698,10.494,10.494v42.011c0,5.796-4.698,10.494-10.494,10.494H29.048C23.252,82.297,18.554,77.598,18.554,71.802z
	"/>
<polygon style="fill:#FEFDEF;" points="30.5,31.5 57,70.5 69.05,70.269 42.5,31.5 "/>
<path d="M69.5,82.5h-39c-7.18,0-13-5.82-13-13v-39c0-7.18,5.82-13,13-13h39c7.18,0,13,5.82,13,13v39
	C82.5,76.68,76.68,82.5,69.5,82.5 M19.5,30.5v39c0,6.075,4.925,11,11,11h39c6.075,0,11-4.925,11-11v-39c0-6.075-4.925-11-11-11h-39
	C24.425,19.5,19.5,24.425,19.5,30.5"/>
<polygon style="fill:#FEFDEF;" points="30.616,71.392 34,71.5 47.03,55.923 45.151,53.767 "/>
<g>
	<path style="fill:#1D1D1B;" d="M69.5,71H57c-0.165,0-0.32-0.082-0.413-0.218L40.2,46.771c-0.156-0.229-0.097-0.54,0.131-0.695
		s0.54-0.097,0.695,0.131L57.264,70h11.282L42.238,32H31.444l3.207,4.719c0.155,0.229,0.096,0.54-0.132,0.694
		c-0.23,0.156-0.54,0.097-0.695-0.132l-3.737-5.5c-0.104-0.153-0.115-0.352-0.028-0.516C30.145,31.103,30.315,31,30.5,31h12
		c0.164,0,0.318,0.08,0.411,0.216l27,39c0.106,0.152,0.118,0.352,0.032,0.517C69.856,70.896,69.686,71,69.5,71z M39.517,45.229
		c-0.157,0-0.311-0.073-0.408-0.211l-0.644-0.907c-0.16-0.225-0.107-0.537,0.118-0.696c0.225-0.16,0.537-0.107,0.697,0.118
		l0.644,0.907c0.16,0.225,0.107,0.537-0.118,0.696C39.718,45.199,39.617,45.229,39.517,45.229z M37.635,42.5
		c-0.16,0-0.317-0.076-0.414-0.219l-2.039-3c-0.155-0.229-0.096-0.54,0.132-0.694c0.229-0.155,0.54-0.097,0.695,0.132l2.039,3
		c0.155,0.229,0.096,0.54-0.132,0.694C37.83,42.472,37.732,42.5,37.635,42.5z"/>
</g>
<g>
	<polygon style="fill:#FEFDEF;" points="52.435,45.787 53.968,47.962 67.24,31.678 64.082,31.546 	"/>
</g>
<g>
	<path style="fill:#1D1D1B;" d="M34,72h-3.5c-0.194,0-0.371-0.112-0.453-0.288c-0.083-0.176-0.056-0.383,0.068-0.532l14.937-17.935
		c0.101-0.121,0.246-0.199,0.409-0.179c0.157,0.008,0.301,0.089,0.389,0.219l1.593,2.357c0.125,0.185,0.112,0.43-0.031,0.602
		l-13.03,15.577C34.289,71.935,34.148,72,34,72z M31.567,71h2.2l12.638-15.109l-1.01-1.494L31.567,71z"/>
</g>
<g>
	<path style="fill:#1D1D1B;" d="M53.968,48.462c-0.006,0-0.013,0-0.019,0c-0.156-0.006-0.3-0.085-0.39-0.212l-1.533-2.176
		c-0.129-0.184-0.121-0.431,0.021-0.604l11.646-14.24c0.094-0.114,0.233-0.182,0.381-0.184l3.442-0.042
		c0.193-0.004,0.373,0.108,0.457,0.284c0.084,0.175,0.059,0.384-0.065,0.534L54.354,48.28
		C54.259,48.396,54.117,48.462,53.968,48.462z M53.062,45.809l0.937,1.329l12.454-15.121l-2.132,0.026L53.062,45.809z"/>
</g>
<path d="M66.662,77.5H33.337c-5.985,0-10.837-4.852-10.837-10.837V33.337c0-5.985,4.852-10.837,10.837-10.837H67
	c0.276,0,0.5,0.224,0.5,0.5s-0.224,0.5-0.5,0.5H33.337c-5.433,0-9.837,4.404-9.837,9.837v33.325c0,5.433,4.405,9.838,9.838,9.838
	h33.325c5.433,0,9.837-4.404,9.837-9.837V48c0-0.276,0.224-0.5,0.5-0.5s0.5,0.224,0.5,0.5v18.662
	C77.5,72.648,72.648,77.5,66.662,77.5 M77,45.079c-0.276,0-0.5-0.224-0.5-0.5v-4c0-0.276,0.224-0.5,0.5-0.5s0.5,0.224,0.5,0.5v4
	C77.5,44.856,77.276,45.079,77,45.079 M77,39.079c-0.276,0-0.5-0.224-0.5-0.5v-2c0-0.276,0.224-0.5,0.5-0.5s0.5,0.224,0.5,0.5v2
	C77.5,38.856,77.276,39.079,77,39.079"/>
</svg>