<svg xmlns="http://www.w3.org/2000/svg"  viewBox="0 0 100 100" width="128px" height="128px" baseProfile="basic"><circle cx="52" cy="52" r="44" opacity=".35"/><circle cx="50" cy="50" r="44" fill="#F2F2F2"/><path fill="#70BFFF" d="M50,12.5c-20.7110004,0-37.5,16.7889996-37.5,37.5S29.2889996,87.5,50,87.5S87.5,70.7109985,87.5,50 S70.7109985,12.5,50,12.5z"/><path fill="#40396E" d="M87.4400024,51.5v-3h-17.239006c-0.1100006-5.855999-0.8610001-11.3400002-2.1259995-16.211998 c4.4469986-1.1870003,8.4410019-2.8139992,11.7249985-4.8299999l-1.5690002-2.5569992 c-3.060997,1.8789978-6.8009949,3.3989964-10.9809952,4.508997C63.723999,18.3180008,57.3839989,11.0600004,50,11.0600004 c-7.3769989,0-13.711998,7.2449999-17.2389984,18.3190002c-4.0629997-1.0809994-7.7579994-2.5440006-10.8699989-4.3419991 l-1.5009995,2.5979996c3.316,1.9160004,7.2410011,3.4750004,11.5429993,4.6240005 C30.6640015,37.1390038,29.9100018,42.6330032,29.8000031,48.5H12.5600004v3h17.2389984 c0.1100006,5.855999,0.8610001,11.3400002,2.1259995,16.211998c-4.4470005,1.1869965-8.441,2.814003-11.7250004,4.8300018 l1.5690002,2.5569992c3.0610008-1.8789978,6.8010006-3.3990021,10.9810009-4.5090027 C36.276001,81.6819992,42.6160011,88.9400024,50,88.9400024c7.3769989,0,13.711998-7.2450027,17.2389984-18.3190002 c4.0630035,1.0810013,7.7580032,2.5439987,10.8700027,4.3420029l1.5009995-2.5979996 c-3.3160019-1.9160004-7.2409973-3.4749985-11.5429993-4.6240005c1.2689972-4.8800011,2.0230026-10.3740005,2.1330032-16.2409973 C70.2000046,51.5000076,87.4400024,51.5000076,87.4400024,51.5z M67.2009964,48.5H51.5V34.5229988 c4.743-0.0909996,9.3390007-0.6139984,13.5970001-1.5239983C66.3349991,37.6749992,67.0859985,42.9490013,67.2009964,48.5z M64.2490005,30.1189995C60.2630005,30.9529991,55.9550018,31.434,51.5,31.5229988V14.2110004 C56.7389984,15.2069998,61.3909988,21.3430004,64.2490005,30.1189995z M48.5,14.2110004v17.3120003 c-4.4099998-0.0909996-8.7159996-0.5839996-12.7389984-1.4349995C38.6199989,21.3279991,43.2669983,15.2060003,48.5,14.2110004z M34.9109993,32.9690018C39.2080002,33.8950005,43.8040009,34.4290009,48.5,34.5230026V48.5H32.7989998 C32.9150009,42.9370003,33.6679993,37.6520004,34.9109993,32.9690018z M32.7989998,51.5H48.5v13.9769974 c-4.743,0.0920029-9.3390007,0.6139984-13.5970001,1.5240021C33.6650009,62.3250008,32.9140015,57.0509987,32.7989998,51.5z M35.7509995,69.8809967C39.7369995,69.0469971,44.0449982,68.5659943,48.5,68.4769974v17.3120041 C43.2610016,84.7929993,38.6090012,78.6569977,35.7509995,69.8809967z M51.5,85.7890015V68.4769974 c4.4099998,0.0910034,8.7159996,0.5839996,12.7389984,1.4349976C61.3800011,78.6719971,56.7330017,84.7939987,51.5,85.7890015z M65.0889969,67.0309982c-4.2970009-0.9260025-8.8929977-1.4599991-13.5890007-1.5540009V51.5h15.7010002 C67.0849991,57.0629997,66.3320007,62.3479996,65.0889969,67.0309982z" opacity=".35"/><path fill="#40396E" d="M50,89c-21.5048828,0-39-17.4951172-39-39s17.4951172-39,39-39s39,17.4951172,39,39S71.5048828,89,50,89z M50,14c-19.8505859,0-36,16.1494141-36,36s16.1494141,36,36,36s36-16.1494141,36-36S69.8505859,14,50,14z"/><path fill="#70BFFF" d="M34.5581055,59.5478516c-1.359375,0-2.2822266-0.5205078-2.8173828-0.9570312 c-0.5507812-0.4492188-0.9921875-1.0371094-1.3164062-1.7509766c-0.3339844,0.7255859-0.7578125,1.2900391-1.2792969,1.7265625 c-0.5341797,0.4472656-1.4604492,0.9814453-2.8378906,0.9814453c-1.3574219,0-2.2807617-0.5078125-2.815918-0.9335938 c-0.6669922-0.53125-1.175293-1.2558594-1.5112305-2.1552734l-3.6635742-10.2998047 c-0.4951172-1.3427734-0.3300781-2.7792969,0.4648438-3.9072266c0.4604492-0.6552734,1.5473633-1.7597656,3.6259766-1.7597656 c1.3925781,0,2.315918,0.5410156,2.8452148,0.9941406c0.5214844,0.4472656,0.9360352,1.0283203,1.2382812,1.7314453 c0.2954102-0.6845703,0.7124023-1.2675781,1.2363281-1.71875c0.765625-0.6582031,1.7358398-1.0068359,2.8051758-1.0068359 c1.0883789,0,2.0673828,0.3671875,2.8310547,1.0615234c0.4833984,0.4423828,0.8759766,1.0087891,1.1738281,1.6914062 c0.2807617-0.6826172,0.7016602-1.2802734,1.2426758-1.7460938c0.5336914-0.4589844,1.4604492-1.0068359,2.8408203-1.0068359 c1.4692383,0,2.7548828,0.6660156,3.5273438,1.8271484c0.7529297,1.1259766,0.8925781,2.5019531,0.3901367,3.8701172 l-3.6748047,10.2509766c-0.3212891,0.9013672-0.8300781,1.6357422-1.5092773,2.1757812 C36.5888672,59.2246094,35.6210938,59.5478516,34.5581055,59.5478516z"/><path fill="#70BFFF" d="M54.7797852,59.5478516c-1.359375,0-2.2822266-0.5205078-2.8173828-0.9570312 c-0.550293-0.4492188-0.9916992-1.0371094-1.315918-1.7509766c-0.3354492,0.7265625-0.7587891,1.2900391-1.2797852,1.7265625 c-0.5341797,0.4472656-1.4604492,0.9814453-2.8378906,0.9814453c-1.3574219,0-2.2807617-0.5078125-2.815918-0.9335938 c-0.6679688-0.5322266-1.1767578-1.2578125-1.5117188-2.1591797l-3.6630859-10.2949219 c-0.4946289-1.3466797-0.3291016-2.78125,0.4648438-3.9082031c0.4604492-0.6552734,1.5473633-1.7597656,3.6264648-1.7597656 c1.3920898,0,2.3154297,0.5410156,2.8447266,0.9941406c0.5205078,0.4453125,0.9360352,1.0263672,1.2382812,1.7304688 c0.2944336-0.6826172,0.7114258-1.265625,1.2363281-1.7177734c0.765625-0.6582031,1.7358398-1.0068359,2.8051758-1.0068359 c1.0883789,0,2.0673828,0.3671875,2.8310547,1.0615234c0.4829102,0.4404297,0.8759766,1.0078125,1.1738281,1.6914062 c0.2822266-0.6826172,0.7016602-1.2792969,1.2402344-1.7441406c0.5361328-0.4609375,1.4628906-1.0087891,2.84375-1.0087891 c1.4677734,0,2.7524414,0.6650391,3.5253906,1.8242188c0.7553711,1.1298828,0.8950195,2.5068359,0.390625,3.875 l-3.6733398,10.2490234c-0.3237305,0.9052734-0.8330078,1.6386719-1.512207,2.1777344 C56.8105469,59.2246094,55.8427734,59.5478516,54.7797852,59.5478516z"/><path fill="#70BFFF" d="M75.0019531,59.5478516c-1.359375,0-2.2822266-0.5205078-2.8173828-0.9570312 c-0.5498047-0.4492188-0.9916992-1.0371094-1.315918-1.7509766c-0.3344727,0.7255859-0.7578125,1.2900391-1.2797852,1.7265625 c-0.5341797,0.4472656-1.4604492,0.9814453-2.8378906,0.9814453c-1.3574219,0-2.2807617-0.5078125-2.815918-0.9335938 c-0.6669922-0.53125-1.175293-1.2558594-1.5112305-2.1552734l-3.6635742-10.2998047 c-0.4951172-1.3427734-0.3300781-2.7792969,0.4648438-3.9072266c0.4604492-0.6552734,1.5473633-1.7597656,3.6259766-1.7597656 c1.3925781,0,2.315918,0.5410156,2.8452148,0.9941406c0.5200195,0.4453125,0.9355469,1.0263672,1.2382812,1.7304688 c0.2954102-0.6845703,0.7124023-1.2666016,1.2363281-1.7177734c0.765625-0.6582031,1.7358398-1.0068359,2.8051758-1.0068359 c1.0883789,0,2.0673828,0.3671875,2.8310547,1.0615234c0.4829102,0.4414062,0.8759766,1.0087891,1.1738281,1.6914062 c0.28125-0.6826172,0.7016602-1.2802734,1.2426758-1.7460938c0.5336914-0.4589844,1.4604492-1.0068359,2.8413086-1.0068359 c1.4677734,0,2.7524414,0.6650391,3.5253906,1.8242188c0.7553711,1.1318359,0.8945312,2.5087891,0.390625,3.875 l-3.6738281,10.2490234c-0.3212891,0.9013672-0.8300781,1.6357422-1.5092773,2.1757812 C77.0327148,59.2246094,76.0649414,59.5478516,75.0019531,59.5478516z"/><path fill="#40396E" d="M26.3068924,56.5476189c-0.3967247,0-0.7133713-0.0940399-0.9477329-0.2806473 s-0.4246426-0.4716606-0.5686378-0.8581009l-3.6476688-10.254612c-0.1682396-0.4569702-0.1381187-0.8492851,0.0903664-1.1740112 c0.2284832-0.3247299,0.6200657-0.4878273,1.1740112-0.4878273c0.3849716,0,0.6825142,0.0910988,0.8933678,0.2718315 c0.2108517,0.1807289,0.3820305,0.4628448,0.515007,0.8478165l2.6000195,7.7464256l2.7440166-7.7273254 c0.1322403-0.3864403,0.3070946-0.6714935,0.5238228-0.8581009c0.2167301-0.1866074,0.4995804-0.2806473,0.8485508-0.2806473 c0.3372173,0,0.6075783,0.0940399,0.8125534,0.2806473c0.2042389,0.1866074,0.3790932,0.4775391,0.5238228,0.8757324 l2.6536503,7.8536911l2.7087517-7.8904228c0.1197548-0.3732147,0.2887268-0.6523933,0.5054588-0.8390007 c0.2167282-0.1866074,0.5113335-0.2806473,0.8845482-0.2806473c0.4694595,0,0.8125534,0.1630974,1.0292816,0.4878273 c0.216732,0.3247261,0.240242,0.717041,0.0719986,1.1740112l-3.68293,10.2737122 c-0.1329765,0.3732147-0.3159103,0.6523933-0.5510101,0.8390007c-0.2343597,0.1866074-0.5443916,0.2806473-0.9300995,0.2806473 c-0.3849678,0-0.6920624-0.0940399-0.9205475-0.2806473s-0.4150925-0.4716606-0.5598259-0.8581009l-2.6360168-7.4745979 l-2.6720181,7.4936981c-0.1447296,0.3732147-0.3283997,0.6523933-0.5510063,0.8390007S26.6918621,56.5476189,26.3068924,56.5476189 z"/><path fill="#40396E" d="M46.5288582,56.5476189c-0.3967285,0-0.7133713-0.0940399-0.9477348-0.2806473 c-0.2343597-0.1866074-0.4246407-0.4716606-0.5686378-0.8581009l-3.6476669-10.254612 c-0.1682434-0.4569702-0.1381187-0.8492851,0.0903625-1.1740112c0.2284851-0.3247299,0.6200676-0.4878273,1.174015-0.4878273 c0.3849678,0,0.6825142,0.0910988,0.893364,0.2718315c0.2108536,0.1807289,0.3820343,0.4628448,0.5150108,0.8478165 l2.6000175,7.7464256l2.7440147-7.7273254c0.1322441-0.3864403,0.3070946-0.6714935,0.5238266-0.8581009 c0.2167282-0.1866074,0.4995804-0.2806473,0.8485489-0.2806473c0.3372192,0,0.6075783,0.0940399,0.8125534,0.2806473 c0.2042389,0.1866074,0.3790932,0.4775391,0.5238228,0.8757324l2.6536522,7.8536911l2.7087517-7.8904228 c0.119751-0.3732147,0.2887268-0.6523933,0.505455-0.8390007c0.216732-0.1866074,0.5113373-0.2806473,0.884552-0.2806473 c0.4694595,0,0.8125534,0.1630974,1.0292816,0.4878273c0.2167282,0.3247261,0.2402382,0.717041,0.0719986,1.1740112 l-3.6829338,10.2737122c-0.1329765,0.3732147-0.3159103,0.6523933-0.5510063,0.8390007 c-0.2343636,0.1866074-0.5443954,0.2806473-0.9300995,0.2806473c-0.3849716,0-0.6920662-0.0940399-0.9205513-0.2806473 c-0.2284813-0.1866074-0.4150925-0.4716606-0.5598221-0.8581009l-2.6360168-7.4745979l-2.67202,7.4936981 c-0.1447296,0.3732147-0.3283997,0.6523933-0.5510063,0.8390007S46.913826,56.5476189,46.5288582,56.5476189z"/><path fill="#40396E" d="M66.750824,56.5476189c-0.3967285,0-0.7133713-0.0940399-0.9477386-0.2806473 c-0.2343597-0.1866074-0.4246368-0.4716606-0.568634-0.8581009l-3.6476707-10.254612 c-0.1682396-0.4569702-0.1381187-0.8492851,0.0903664-1.1740112c0.2284851-0.3247299,0.6200676-0.4878273,1.1740112-0.4878273 c0.3849716,0,0.6825142,0.0910988,0.8933678,0.2718315c0.2108498,0.1807289,0.3820305,0.4628448,0.5150108,0.8478165 l2.6000137,7.7464256l2.7440186-7.7273254c0.1322403-0.3864403,0.3070908-0.6714935,0.5238266-0.8581009 c0.2167282-0.1866074,0.4995804-0.2806473,0.8485489-0.2806473c0.3372192,0,0.6075745,0.0940399,0.8125534,0.2806473 c0.2042389,0.1866074,0.3790894,0.4775391,0.523819,0.8757324l2.653656,7.8536911l2.7087479-7.8904228 c0.119751-0.3732147,0.2887268-0.6523933,0.505455-0.8390007c0.2167358-0.1866074,0.5113373-0.2806473,0.884552-0.2806473 c0.4694595,0,0.8125534,0.1630974,1.0292816,0.4878273c0.2167282,0.3247261,0.240242,0.717041,0.0719986,1.1740112 l-3.68293,10.2737122c-0.1329803,0.3732147-0.3159103,0.6523933-0.5510101,0.8390007 c-0.2343597,0.1866074-0.5443954,0.2806473-0.9300995,0.2806473c-0.3849716,0-0.6920624-0.0940399-0.9205475-0.2806473 s-0.4150925-0.4716606-0.5598221-0.8581009l-2.6360168-7.4745979l-2.67202,7.4936981 c-0.1447296,0.3732147-0.3283997,0.6523933-0.5510101,0.8390007C67.439949,56.4535789,67.135788,56.5476189,66.750824,56.5476189z"/></svg>